<svg width="18" height="16" viewBox="0 0 18 16" fill="none" xmlns="http://www.w3.org/2000/svg">
<path d="M6.69999 16.0001C7.33117 16.0001 7.84284 15.4884 7.84284 14.8572C7.84284 14.226 7.33117 13.7144 6.69999 13.7144C6.0688 13.7144 5.55713 14.226 5.55713 14.8572C5.55713 15.4884 6.0688 16.0001 6.69999 16.0001Z" fill="#2E2E2E"/>
<path d="M14.7 16.0001C15.3312 16.0001 15.8428 15.4884 15.8428 14.8572C15.8428 14.226 15.3312 13.7144 14.7 13.7144C14.0688 13.7144 13.5571 14.226 13.5571 14.8572C13.5571 15.4884 14.0688 16.0001 14.7 16.0001Z" fill="#2E2E2E"/>
<path d="M16.9858 2.85726H4.31155L3.84298 0.457259C3.81627 0.326244 3.74446 0.208746 3.64004 0.125218C3.53563 0.0416895 3.40524 -0.00257971 3.27155 0.000116251H0.98584V1.14297H2.80298L4.98584 12.1144C5.01256 12.2454 5.08437 12.3629 5.18878 12.4464C5.29319 12.53 5.42358 12.5742 5.55727 12.5715H15.843V11.4287H6.02584L5.55727 9.14297H15.843C15.9751 9.1462 16.1042 9.10355 16.2084 9.02229C16.3126 8.94102 16.3854 8.82616 16.4144 8.69726L17.5573 3.5544C17.5764 3.46962 17.576 3.38158 17.556 3.29699C17.536 3.2124 17.4969 3.1335 17.4418 3.06627C17.3867 2.99905 17.317 2.94528 17.238 2.90906C17.159 2.87284 17.0727 2.85512 16.9858 2.85726ZM15.3858 8.00012H5.34013L4.54013 4.00012H16.2716L15.3858 8.00012Z" fill="#2E2E2E"/>
</svg>
