<svg width="122" height="33" viewBox="0 0 122 33" fill="none" xmlns="http://www.w3.org/2000/svg">
<path d="M12.0369 32.64C17.7009 32.64 20.5809 30.432 21.3489 25.632H21.8289V32.16H30.2769V0H21.2529V14.208H20.7729C20.0529 10.176 17.3649 7.488 11.6529 7.488C4.54894 7.488 0.564941 12.192 0.564941 20.064C0.564941 27.888 4.64494 32.64 12.0369 32.64ZM9.68494 20.064C9.68494 16.848 11.1249 15.696 15.3009 15.696C19.3329 15.696 21.2529 16.368 21.2529 19.776V20.112C21.2529 23.616 19.3329 24.384 15.3009 24.384C11.1249 24.384 9.68494 23.28 9.68494 20.064Z" fill="#D4E3D6"/>
<path d="M46.6423 32.64C54.8023 32.64 59.9383 28.848 59.9383 23.472V22.896H50.9143V23.424C50.9143 24.864 49.9543 25.488 46.3063 25.488C42.4663 25.488 41.1703 24.672 41.0263 21.744H59.9863C60.0823 20.88 60.1303 20.256 60.1303 19.44C60.1303 11.664 54.8023 7.488 46.4503 7.488C38.3863 7.488 32.6743 12.192 32.6743 20.064C32.6743 29.136 38.4343 32.64 46.6423 32.64ZM46.2583 14.4C49.6183 14.4 51.0583 15.12 51.3943 17.184H41.1703C41.5543 15.12 42.9463 14.4 46.2583 14.4Z" fill="#D4E3D6"/>
<path d="M71.5689 32.16V24.432H75.9369L81.0249 32.16H91.6809L83.2329 19.728L91.8249 7.968H81.1689L75.8409 16.368H71.5689V0H62.5449V32.16H71.5689Z" fill="#D4E3D6"/>
<path d="M102.715 32.64C109.291 32.64 111.979 28.848 112.507 24.816H112.987V32.16H121.435V7.968H112.411V20.448C112.411 23.568 111.403 24.576 107.227 24.576C103.099 24.576 101.803 23.52 101.803 20.16V7.968H92.7793V23.472C92.7793 28.704 95.9473 32.64 102.715 32.64Z" fill="#D4E3D6"/>
</svg>
