<svg width="16" height="17" viewBox="0 0 16 17" fill="none" xmlns="http://www.w3.org/2000/svg">
<path fill-rule="evenodd" clip-rule="evenodd" d="M4.70182 0.687893C5.55491 0.64862 5.82691 0.639893 8 0.639893C10.1731 0.639893 10.4451 0.649347 11.2975 0.687893C12.1498 0.726438 12.7316 0.862438 13.2407 1.05953C13.7738 1.26098 14.2575 1.57589 14.6575 1.98317C15.0647 2.38244 15.3789 2.86535 15.5796 3.39917C15.7775 3.90826 15.9127 4.49007 15.952 5.34098C15.9913 6.19553 16 6.46753 16 8.63989C16 10.813 15.9905 11.085 15.952 11.9381C15.9135 12.789 15.7775 13.3708 15.5796 13.8799C15.3789 14.4138 15.0642 14.8975 14.6575 15.2973C14.2575 15.7046 13.7738 16.0188 13.2407 16.2195C12.7316 16.4173 12.1498 16.5526 11.2989 16.5919C10.4451 16.6312 10.1731 16.6399 8 16.6399C5.82691 16.6399 5.55491 16.6304 4.70182 16.5919C3.85091 16.5533 3.26909 16.4173 2.76 16.2195C2.22612 16.0188 1.74241 15.7041 1.34255 15.2973C0.935549 14.8978 0.620593 14.4144 0.419636 13.8806C0.222545 13.3715 0.0872727 12.7897 0.048 11.9388C0.00872726 11.0843 0 10.8123 0 8.63989C0 6.4668 0.00945454 6.1948 0.048 5.34244C0.0865454 4.49007 0.222545 3.90826 0.419636 3.39917C0.620889 2.86541 0.936086 2.38194 1.34327 1.98244C1.74257 1.57553 2.2258 1.26058 2.75927 1.05953C3.26836 0.862438 3.85018 0.727165 4.70109 0.687893H4.70182ZM11.2327 2.12789C10.3891 2.08935 10.136 2.08135 8 2.08135C5.864 2.08135 5.61091 2.08935 4.76727 2.12789C3.98691 2.16353 3.56364 2.29371 3.28145 2.40353C2.90836 2.54898 2.64145 2.72135 2.36145 3.00135C2.09603 3.25957 1.89177 3.57392 1.76364 3.92135C1.65382 4.20353 1.52364 4.6268 1.488 5.40717C1.44945 6.2508 1.44145 6.50389 1.44145 8.63989C1.44145 10.7759 1.44945 11.029 1.488 11.8726C1.52364 12.653 1.65382 13.0763 1.76364 13.3584C1.89164 13.7053 2.096 14.0203 2.36145 14.2784C2.61964 14.5439 2.93455 14.7483 3.28145 14.8763C3.56364 14.9861 3.98691 15.1163 4.76727 15.1519C5.61091 15.1904 5.86327 15.1984 8 15.1984C10.1367 15.1984 10.3891 15.1904 11.2327 15.1519C12.0131 15.1163 12.4364 14.9861 12.7185 14.8763C13.0916 14.7308 13.3585 14.5584 13.6385 14.2784C13.904 14.0203 14.1084 13.7053 14.2364 13.3584C14.3462 13.0763 14.4764 12.653 14.512 11.8726C14.5505 11.029 14.5585 10.7759 14.5585 8.63989C14.5585 6.50389 14.5505 6.2508 14.512 5.40717C14.4764 4.6268 14.3462 4.20353 14.2364 3.92135C14.0909 3.54826 13.9185 3.28135 13.6385 3.00135C13.3803 2.73594 13.066 2.53168 12.7185 2.40353C12.4364 2.29371 12.0131 2.16353 11.2327 2.12789ZM6.97818 11.1061C7.54884 11.3436 8.18428 11.3757 8.77595 11.1968C9.36762 11.0179 9.87883 10.6391 10.2223 10.1252C10.5657 9.61122 10.72 8.99398 10.6589 8.37888C10.5978 7.76378 10.3251 7.18896 9.88727 6.75262C9.60817 6.47369 9.2707 6.26012 8.89915 6.12727C8.5276 5.99442 8.13122 5.94561 7.73854 5.98434C7.34586 6.02307 6.96666 6.14839 6.62822 6.35126C6.28979 6.55414 6.00054 6.82952 5.78131 7.1576C5.56208 7.48568 5.41832 7.85828 5.36038 8.24859C5.30243 8.6389 5.33175 9.0372 5.44621 9.41481C5.56068 9.79243 5.75744 10.14 6.02234 10.4324C6.28724 10.7249 6.61369 10.9549 6.97818 11.1061ZM5.09236 5.73226C5.4742 5.35042 5.92751 5.04753 6.4264 4.84088C6.92529 4.63423 7.46 4.52787 8 4.52787C8.54 4.52787 9.07471 4.63423 9.5736 4.84088C10.0725 5.04753 10.5258 5.35042 10.9076 5.73226C11.2895 6.11409 11.5924 6.5674 11.799 7.06629C12.0057 7.56518 12.112 8.0999 12.112 8.63989C12.112 9.17989 12.0057 9.7146 11.799 10.2135C11.5924 10.7124 11.2895 11.1657 10.9076 11.5475C10.1365 12.3187 9.09058 12.7519 8 12.7519C6.90942 12.7519 5.86352 12.3187 5.09236 11.5475C4.32121 10.7764 3.88798 9.73047 3.88798 8.63989C3.88798 7.54932 4.32121 6.50341 5.09236 5.73226ZM13.024 5.14026C13.1186 5.051 13.1944 4.94366 13.2468 4.8246C13.2992 4.70554 13.3271 4.57718 13.329 4.44711C13.3309 4.31705 13.3067 4.18793 13.2578 4.06739C13.2089 3.94685 13.1363 3.83735 13.0443 3.74538C12.9524 3.6534 12.8429 3.58081 12.7223 3.53191C12.6018 3.483 12.4727 3.45878 12.3426 3.46068C12.2125 3.46258 12.0842 3.49055 11.9651 3.54294C11.8461 3.59534 11.7387 3.67109 11.6495 3.76571C11.4759 3.94973 11.3808 4.19416 11.3845 4.44711C11.3882 4.70007 11.4903 4.94162 11.6692 5.12051C11.8481 5.29939 12.0896 5.40151 12.3426 5.4052C12.5955 5.40889 12.84 5.31385 13.024 5.14026Z" fill="white"/>
</svg>
