<svg width="81" height="22" viewBox="0 0 81 22" fill="none" xmlns="http://www.w3.org/2000/svg">
<path d="M7.648 21.8801C11.424 21.8801 13.344 20.4081 13.856 17.2081H14.176V21.5601H19.808V0.120117H13.792V9.59212H13.472C12.992 6.90412 11.2 5.11212 7.392 5.11212C2.656 5.11212 0 8.24812 0 13.4961C0 18.7121 2.72 21.8801 7.648 21.8801ZM6.08 13.4961C6.08 11.3521 7.04 10.5841 9.824 10.5841C12.512 10.5841 13.792 11.0321 13.792 13.3041V13.5281C13.792 15.8641 12.512 16.3761 9.824 16.3761C7.04 16.3761 6.08 15.6401 6.08 13.4961Z" fill="#C55E34"/>
<path d="M30.7183 21.8801C36.1583 21.8801 39.5823 19.3521 39.5823 15.7681V15.3841H33.5662V15.7361C33.5662 16.6961 32.9263 17.1121 30.4943 17.1121C27.9343 17.1121 27.0703 16.5681 26.9743 14.6161H39.6143C39.6782 14.0401 39.7103 13.6241 39.7103 13.0801C39.7103 7.89612 36.1583 5.11212 30.5903 5.11212C25.2143 5.11212 21.4062 8.24812 21.4062 13.4961C21.4062 19.5441 25.2462 21.8801 30.7183 21.8801ZM30.4622 9.72012C32.7023 9.72012 33.6623 10.2001 33.8863 11.5761H27.0703C27.3263 10.2001 28.2543 9.72012 30.4622 9.72012Z" fill="#C55E34"/>
<path d="M47.336 21.5601V16.4081H50.248L53.64 21.5601H60.744L55.112 13.2721L60.84 5.43212H53.736L50.184 11.0321H47.336V0.120117H41.32V21.5601H47.336Z" fill="#C55E34"/>
<path d="M68.1003 21.8801C72.4843 21.8801 74.2762 19.3521 74.6283 16.6641H74.9482V21.5601H80.5803V5.43212H74.5643V13.7521C74.5643 15.8321 73.8923 16.5041 71.1083 16.5041C68.3563 16.5041 67.4922 15.8001 67.4922 13.5601V5.43212H61.4762V15.7681C61.4762 19.2561 63.5882 21.8801 68.1003 21.8801Z" fill="#C55E34"/>
</svg>
