<svg width="17" height="16" viewBox="0 0 17 16" fill="none" xmlns="http://www.w3.org/2000/svg">
<path d="M16.9858 15.1632L12.5165 10.6938C13.5905 9.40448 14.1261 7.75068 14.0118 6.07649C13.8975 4.40231 13.1422 2.83663 11.9029 1.70516C10.6637 0.5737 9.03592 -0.036435 7.35827 0.00168439C5.68062 0.0398037 4.08225 0.723243 2.89567 1.90983C1.70908 3.09641 1.02564 4.69478 0.987524 6.37243C0.949405 8.05008 1.55954 9.67784 2.691 10.9171C3.82247 12.1564 5.38815 12.9117 7.06233 13.026C8.73652 13.1402 10.3903 12.6047 11.6797 11.5307L16.149 16L16.9858 15.1632ZM2.19062 6.53106C2.19062 5.47762 2.503 4.44784 3.08826 3.57194C3.67352 2.69604 4.50537 2.01335 5.47862 1.61022C6.45187 1.20709 7.52281 1.10161 8.556 1.30712C9.5892 1.51264 10.5383 2.01992 11.2831 2.76481C12.028 3.50971 12.5353 4.45876 12.7408 5.49195C12.9464 6.52515 12.8409 7.59609 12.4377 8.56934C12.0346 9.54259 11.3519 10.3744 10.476 10.9597C9.60012 11.545 8.57034 11.8573 7.5169 11.8573C6.10476 11.8558 4.75091 11.2941 3.75238 10.2956C2.75385 9.29705 2.19219 7.9432 2.19062 6.53106Z" fill="#2E2E2E"/>
</svg>
