<svg width="12" height="16" viewBox="0 0 12 16" fill="none" xmlns="http://www.w3.org/2000/svg">
<path d="M6.28557 1.14286C6.85066 1.14286 7.40306 1.31043 7.87292 1.62437C8.34277 1.93832 8.70898 2.38454 8.92523 2.90662C9.14148 3.42869 9.19806 4.00317 9.08782 4.5574C8.97758 5.11163 8.70546 5.62073 8.30588 6.02031C7.9063 6.41988 7.39721 6.692 6.84298 6.80224C6.28874 6.91249 5.71427 6.85591 5.19219 6.63966C4.67012 6.42341 4.22389 6.0572 3.90995 5.58734C3.596 5.11749 3.42843 4.56509 3.42843 4C3.42843 3.24224 3.72945 2.51551 4.26527 1.97969C4.80109 1.44388 5.52781 1.14286 6.28557 1.14286ZM6.28557 0C5.49445 0 4.72109 0.234596 4.06329 0.674122C3.4055 1.11365 2.89281 1.73836 2.59006 2.46927C2.28731 3.20017 2.20809 4.00444 2.36243 4.78036C2.51677 5.55629 2.89774 6.26902 3.45715 6.82843C4.01656 7.38784 4.72929 7.7688 5.50521 7.92314C6.28114 8.07748 7.0854 7.99827 7.81631 7.69552C8.54721 7.39277 9.17193 6.88008 9.61145 6.22228C10.051 5.56448 10.2856 4.79113 10.2856 4C10.2856 2.93913 9.86415 1.92172 9.114 1.17157C8.36386 0.421427 7.34644 0 6.28557 0ZM11.9999 16H10.857V13.1429C10.857 12.7677 10.7831 12.3961 10.6395 12.0495C10.4959 11.7028 10.2855 11.3879 10.0202 11.1226C9.75486 10.8572 9.43989 10.6468 9.09324 10.5032C8.7466 10.3596 8.37507 10.2857 7.99986 10.2857H4.57129C3.81353 10.2857 3.0868 10.5867 2.55098 11.1226C2.01517 11.6584 1.71415 12.3851 1.71415 13.1429V16H0.571289V13.1429C0.571289 12.082 0.992717 11.0646 1.74286 10.3144C2.49301 9.56429 3.51042 9.14286 4.57129 9.14286H7.99986C9.06073 9.14286 10.0781 9.56429 10.8283 10.3144C11.5784 11.0646 11.9999 12.082 11.9999 13.1429V16Z" fill="#2E2E2E"/>
</svg>
