<svg width="18" height="15" viewBox="0 0 18 15" fill="none" xmlns="http://www.w3.org/2000/svg">
<path d="M18 2.05921C17.3381 2.35252 16.627 2.55071 15.8794 2.64029C16.6508 2.17875 17.2278 1.45234 17.503 0.596601C16.7783 1.02705 15.9851 1.33004 15.158 1.4924C14.6018 0.898528 13.8651 0.504901 13.0623 0.37263C12.2594 0.24036 11.4354 0.376846 10.7181 0.760898C10.0007 1.14495 9.43028 1.75508 9.09525 2.49657C8.76022 3.23805 8.67936 4.0694 8.86523 4.86155C7.39683 4.78782 5.96033 4.40616 4.64898 3.74133C3.33762 3.0765 2.18071 2.14337 1.25332 1.00248C0.936228 1.54948 0.753898 2.18367 0.753898 2.85909C0.753544 3.46712 0.903276 4.06583 1.18981 4.60211C1.47634 5.1384 1.89082 5.59566 2.39646 5.93334C1.81005 5.91468 1.23658 5.75623 0.723773 5.47117V5.51873C0.723714 6.37152 1.0187 7.19806 1.55868 7.85811C2.09865 8.51817 2.85036 8.97107 3.68625 9.13998C3.14226 9.2872 2.57192 9.30889 2.01832 9.2034C2.25416 9.93717 2.71355 10.5788 3.33219 11.0385C3.95082 11.4982 4.69772 11.753 5.46833 11.7671C4.16018 12.7941 2.54461 13.3511 0.881529 13.3486C0.586931 13.3487 0.292582 13.3315 0 13.2971C1.68813 14.3825 3.65322 14.9586 5.66018 14.9563C12.454 14.9563 16.168 9.32945 16.168 4.44933C16.168 4.29078 16.164 4.13064 16.1569 3.9721C16.8793 3.44966 17.5029 2.80272 17.9984 2.06159L18 2.05921Z" fill="white"/>
</svg>
