<svg width="18" height="13" viewBox="0 0 18 13" fill="none" xmlns="http://www.w3.org/2000/svg">
<path d="M17.6231 2.52068C17.5212 2.15715 17.3227 1.82803 17.0487 1.56831C16.7669 1.3006 16.4216 1.1091 16.0453 1.01188C14.637 0.640681 8.99475 0.640682 8.99475 0.640682C6.64257 0.61392 4.29096 0.731625 1.9532 0.993134C1.57689 1.09753 1.23222 1.29331 0.949835 1.56306C0.672372 1.83002 0.471399 2.15923 0.366414 2.51993C0.114217 3.87855 -0.00831698 5.25807 0.000462825 6.63988C-0.00853596 8.02044 0.113698 9.3995 0.366414 10.7598C0.46915 11.119 0.669373 11.4467 0.947585 11.7114C1.2258 11.9762 1.57225 12.1674 1.9532 12.2686C3.38026 12.6391 8.99475 12.6391 8.99475 12.6391C11.3499 12.6659 13.7045 12.5482 16.0453 12.2866C16.4216 12.1894 16.7669 11.9979 17.0487 11.7302C17.3226 11.4705 17.5209 11.1414 17.6223 10.7778C17.8811 9.41972 18.007 8.03963 17.998 6.65712C18.0175 5.26876 17.8918 3.88217 17.6231 2.51993V2.52068ZM7.20099 9.20753V4.07297L11.8954 6.64063L7.20099 9.20753Z" fill="white"/>
</svg>
